<svg xmlns="http://www.w3.org/2000/svg" aria-labelledby="title desc" role="img" viewBox="0 0 1200 750"><title id="title">Project placeholder image</title><desc id="desc">Abstract grid and neon accents</desc><defs><linearGradient id="bg" x1="0" x2="1" y1="0" y2="1"><stop offset="0%" stop-color="#0b1020"/><stop offset="100%" stop-color="#111827"/></linearGradient><linearGradient id="accent" x1="0" x2="1" y1="0" y2="1"><stop offset="0%" stop-color="#22d3ee"/><stop offset="100%" stop-color="#f97316"/></linearGradient></defs><rect width="1200" height="750" fill="url(#bg)"/><g stroke="#94a3b8" stroke-width="1" opacity=".2"><path d="M80 110 H1120"/><path d="M80 210 H1120"/><path d="M80 310 H1120"/><path d="M80 410 H1120"/><path d="M80 510 H1120"/><path d="M80 610 H1120"/></g><g stroke="#94a3b8" stroke-width="1" opacity=".2"><path d="M160 80 V670"/><path d="M320 80 V670"/><path d="M480 80 V670"/><path d="M640 80 V670"/><path d="M800 80 V670"/><path d="M960 80 V670"/></g><rect width="420" height="240" x="150" y="160" fill="#0f172a" opacity=".75" rx="28"/><rect width="240" height="22" x="200" y="220" fill="#e2e8f0" opacity=".9" rx="11"/><rect width="200" height="16" x="200" y="255" fill="#cbd5f5" opacity=".85" rx="8"/><rect width="160" height="16" x="200" y="285" fill="#94a3b8" opacity=".85" rx="8"/><circle cx="920" cy="260" r="140" fill="url(#accent)" opacity=".7"/></svg>