<svg xmlns="http://www.w3.org/2000/svg" aria-labelledby="title desc" role="img" viewBox="0 0 1200 750"><title id="title">Project placeholder image</title><desc id="desc">Abstract waves with soft gradients</desc><defs><linearGradient id="bg" x1="0" x2="1" y1="0" y2="1"><stop offset="0%" stop-color="#111827"/><stop offset="50%" stop-color="#1f2937"/><stop offset="100%" stop-color="#4f46e5"/></linearGradient><linearGradient id="wave" x1="0" x2="1" y1="0" y2="0"><stop offset="0%" stop-color="#38bdf8"/><stop offset="100%" stop-color="#a78bfa"/></linearGradient></defs><rect width="1200" height="750" fill="url(#bg)"/><path fill="url(#wave)" d="M0 520 C 240 430, 420 650, 720 560 C 980 480, 1080 390, 1200 420 L1200 750 L0 750 Z" opacity=".8"/><path fill="#0ea5e9" d="M0 420 C 260 360, 520 520, 820 450 C 980 410, 1100 320, 1200 300 L1200 750 L0 750 Z" opacity=".35"/><rect width="420" height="260" x="120" y="140" fill="#0f172a" opacity=".7" rx="32"/><rect width="260" height="26" x="170" y="200" fill="#e2e8f0" opacity=".9" rx="13"/><rect width="220" height="18" x="170" y="245" fill="#cbd5f5" opacity=".85" rx="9"/><rect width="180" height="18" x="170" y="280" fill="#94a3b8" opacity=".85" rx="9"/></svg>