<svg xmlns="http://www.w3.org/2000/svg" viewBox="0 0 1200 750" role="img" aria-labelledby="title desc">
  <title id="title">Project placeholder image</title>
  <desc id="desc">Abstract grid and neon accents</desc>
  <defs>
    <linearGradient id="bg" x1="0" y1="0" x2="1" y2="1">
      <stop offset="0%" stop-color="#0b1020" />
      <stop offset="100%" stop-color="#111827" />
    </linearGradient>
    <linearGradient id="accent" x1="0" y1="0" x2="1" y2="1">
      <stop offset="0%" stop-color="#22d3ee" />
      <stop offset="100%" stop-color="#f97316" />
    </linearGradient>
  </defs>
  <rect width="1200" height="750" fill="url(#bg)" />
  <g opacity="0.2" stroke="#94a3b8" stroke-width="1">
    <path d="M80 110 H1120" />
    <path d="M80 210 H1120" />
    <path d="M80 310 H1120" />
    <path d="M80 410 H1120" />
    <path d="M80 510 H1120" />
    <path d="M80 610 H1120" />
  </g>
  <g opacity="0.2" stroke="#94a3b8" stroke-width="1">
    <path d="M160 80 V670" />
    <path d="M320 80 V670" />
    <path d="M480 80 V670" />
    <path d="M640 80 V670" />
    <path d="M800 80 V670" />
    <path d="M960 80 V670" />
  </g>
  <rect x="150" y="160" width="420" height="240" rx="28" fill="#0f172a" opacity="0.75" />
  <rect x="200" y="220" width="240" height="22" rx="11" fill="#e2e8f0" opacity="0.9" />
  <rect x="200" y="255" width="200" height="16" rx="8" fill="#cbd5f5" opacity="0.85" />
  <rect x="200" y="285" width="160" height="16" rx="8" fill="#94a3b8" opacity="0.85" />
  <circle cx="920" cy="260" r="140" fill="url(#accent)" opacity="0.7" />
</svg>
