<svg width="64" height="64" viewBox="0 0 64 64" fill="none" xmlns="http://www.w3.org/2000/svg">
  <defs>
    <linearGradient id="ib-bg" x1="8" y1="6" x2="58" y2="60" gradientUnits="userSpaceOnUse">
      <stop stop-color="#17202B" />
      <stop offset="1" stop-color="#0B0F14" />
    </linearGradient>
    <linearGradient id="ib-accent" x1="14" y1="10" x2="50" y2="54" gradientUnits="userSpaceOnUse">
      <stop stop-color="#4F83FF" stop-opacity="0.9" />
      <stop offset="1" stop-color="#8FB2FF" stop-opacity="0.25" />
    </linearGradient>
  </defs>

  <rect width="64" height="64" rx="18" fill="url(#ib-bg)" />
  <rect x="4" y="4" width="56" height="56" rx="14" stroke="url(#ib-accent)" stroke-width="1.5" />
  <path d="M18 49V15H24.5V49H18Z" fill="#F4F0E8" />
  <path
    d="M31 49V15H42.25C45.7167 15 48.3583 15.8083 50.175 17.425C52.025 19.0417 52.95 21.1917 52.95 23.875C52.95 25.5583 52.5417 27.0417 51.725 28.325C50.9417 29.575 49.7667 30.5417 48.2 31.225C50.1833 31.775 51.6667 32.7667 52.65 34.2C53.6667 35.6333 54.175 37.3333 54.175 39.3C54.175 42.1833 53.1917 44.5 51.225 46.25C49.2583 48.0833 46.45 49 42.8 49H31ZM37.45 29.1H42.025C43.625 29.1 44.8333 28.7167 45.65 27.95C46.4667 27.15 46.875 26.0917 46.875 24.775C46.875 23.3917 46.4667 22.35 45.65 21.65C44.8667 20.9167 43.625 20.55 41.925 20.55H37.45V29.1ZM37.45 43.45H42.475C44.175 43.45 45.5 43.0333 46.45 42.2C47.4 41.3333 47.875 40.1583 47.875 38.675C47.875 37.1583 47.4 35.9667 46.45 35.1C45.5 34.2333 44.1583 33.8 42.425 33.8H37.45V43.45Z"
    fill="#F4F0E8"
  />
  <rect x="18" y="52" width="28" height="2.5" rx="1.25" fill="#4F83FF" />
</svg>
